<?xml version="1.0" encoding="utf-8"?>
<!-- Generator: Adobe Illustrator 23.0.1, SVG Export Plug-In . SVG Version: 6.00 Build 0)  -->
<svg version="1.1" id="Layer_1" xmlns="http://www.w3.org/2000/svg" xmlns:xlink="http://www.w3.org/1999/xlink" x="0px" y="0px"
	 viewBox="0 0 400 400" style="enable-background:new 0 0 400 400;" xml:space="preserve">
<style type="text/css">
	.st0{fill:#FFFFFF;}
</style>
<path class="st0" d="M386.37,219.91c-5.45-10.44-18.34-14.49-28.78-9.04c-3.23,1.69-9.9,4.37-18.27,3.44
	c-0.08-0.01-0.16-0.02-0.25-0.03c4.08-5.59,8.04-11.28,11.82-17.06c6.45-9.85,3.7-23.07-6.16-29.53c-9.85-6.45-23.07-3.7-29.53,6.16
	c-10.24,15.63-21.76,30.58-34.23,44.42c-4.82,5.35-9.82,10.56-14.96,15.63c4.19-16.63,6.64-32.17,7.99-46.02
	c0.52-2.12,0.7-4.27,0.56-6.39c1.11-14.65,1.01-27.12,0.52-36.59c-0.7-13.53-2.34-26.92-4.85-40.16c7.21-3.35,15.12-8.4,22.44-16.07
	c10.11-10.59,17.05-24.4,19.52-38.88c1.98-11.61-5.82-22.63-17.43-24.62c-11.61-1.99-22.63,5.82-24.62,17.43
	c-0.61,3.59-2.51,10.52-8.33,16.61c-0.99,1.04-2.02,1.96-3.05,2.79c-3.38-9.69-7.26-19.26-11.65-28.68
	c-4.98-10.68-17.67-15.29-28.34-10.32c-10.68,4.98-15.29,17.67-10.32,28.34c13.57,29.1,21.54,59.77,23.73,91.22
	c-0.95-0.83-1.89-1.65-2.82-2.5c-11.4-10.45-21.26-22.46-29.32-35.7c-6.12-10.06-19.24-13.26-29.31-7.14
	c-10.06,6.12-13.26,19.24-7.14,29.31c10.14,16.68,22.57,31.81,36.94,44.98c9.22,8.45,19.21,16.03,29.81,22.67
	c-3.34,24.44-10.79,53.79-26.27,84.32c-0.91,1.79-1.86,3.55-2.81,5.32c-2.41-23.19-8.38-44.61-17.9-64.09
	c-8.53-17.45-18.24-30.02-27.63-42.19c-10.24-13.26-20.82-26.97-31.6-49.05c-11.69-23.97-19.78-49.89-24.04-77.04
	C98.3,39.82,87.38,31.87,75.74,33.69c-11.64,1.82-19.59,12.74-17.77,24.37c2.56,16.36,6.35,32.33,11.3,47.83
	c-1.9,0.22-3.96,0.29-6.14,0.1c-8.39-0.7-14.41-4.63-17.25-6.91c-9.19-7.37-22.61-5.9-29.98,3.29c-7.37,9.19-5.9,22.61,3.29,29.98
	c11.46,9.19,25.8,14.93,40.39,16.15c2.13,0.18,4.21,0.26,6.24,0.26c7.26,0,13.81-1.07,19.5-2.62c0.17,0.35,0.34,0.71,0.51,1.07
	c12.69,25.99,25.16,42.15,36.17,56.41c5.04,6.53,9.69,12.55,13.98,19.04c-5.21-1.35-10.34-3.03-15.37-5.03
	c-13.58-5.42-26.04-13.05-37.03-22.69c-8.86-7.76-22.33-6.88-30.1,1.98c-7.76,8.86-6.88,22.33,1.98,30.1
	c14.65,12.84,31.25,23.01,49.34,30.23c16.32,6.51,33.42,10.44,50.91,11.72c5.65,24.9,5.55,53.28-0.35,84.78
	c-2.17,11.58,5.46,22.72,17.04,24.89c1.33,0.25,2.65,0.37,3.95,0.37c9.31,0,46.15-46.77,56.26-63.82c0.8-0.4,1.59-0.84,2.35-1.35
	c27.64-18.37,52.92-39.98,75.21-64.26c6.69,3.28,14.85,6.06,24.42,7.13c2.67,0.3,5.37,0.45,8.07,0.45c11.99,0,24.06-2.92,34.68-8.47
	C387.77,243.24,391.82,230.35,386.37,219.91z"/>
</svg>
