<?xml version="1.0" encoding="utf-8"?>
<!-- Generator: Adobe Illustrator 24.3.0, SVG Export Plug-In . SVG Version: 6.00 Build 0)  -->
<svg version="1.1" xmlns="http://www.w3.org/2000/svg" xmlns:xlink="http://www.w3.org/1999/xlink" x="0px" y="0px"
	 viewBox="0 0 400 400" style="enable-background:new 0 0 400 400;" xml:space="preserve">
<style type="text/css">
	.st0{fill:#333333;}
	.st1{fill:none;stroke:#000000;stroke-width:33;stroke-miterlimit:10;}
	.st2{fill:none;}
	.st3{fill:#FFFFFF;}
	.st4{fill:none;stroke:#FFFFFF;stroke-width:14;stroke-miterlimit:10;}
	.st5{fill:none;stroke:#FFFFFF;stroke-width:37;stroke-miterlimit:10;}
</style>
<g id="Layer_1">
	<path class="st0" d="M386.4-200.1c-5.5-10.4-18.3-14.5-28.8-9c-3.2,1.7-9.9,4.4-18.3,3.4c-0.1,0-0.2,0-0.2,0
		c4.1-5.6,8-11.3,11.8-17.1c6.5-9.9,3.7-23.1-6.2-29.5c-9.9-6.4-23.1-3.7-29.5,6.2c-10.2,15.6-21.8,30.6-34.2,44.4
		c-4.8,5.4-9.8,10.6-15,15.6c4.2-16.6,6.6-32.2,8-46c0.5-2.1,0.7-4.3,0.6-6.4c1.1-14.6,1-27.1,0.5-36.6c-0.7-13.5-2.3-26.9-4.9-40.2
		c7.2-3.3,15.1-8.4,22.4-16.1c10.1-10.6,17-24.4,19.5-38.9c2-11.6-5.8-22.6-17.4-24.6s-22.6,5.8-24.6,17.4
		c-0.6,3.6-2.5,10.5-8.3,16.6c-1,1-2,2-3,2.8c-3.4-9.7-7.3-19.3-11.6-28.7c-5-10.7-17.7-15.3-28.3-10.3c-10.7,5-15.3,17.7-10.3,28.3
		c13.6,29.1,21.5,59.8,23.7,91.2c-0.9-0.8-1.9-1.6-2.8-2.5c-11.4-10.4-21.3-22.5-29.3-35.7c-6.1-10.1-19.2-13.3-29.3-7.1
		c-10.1,6.1-13.3,19.2-7.1,29.3c10.1,16.7,22.6,31.8,36.9,45c9.2,8.4,19.2,16,29.8,22.7c-3.3,24.4-10.8,53.8-26.3,84.3
		c-0.9,1.8-1.9,3.5-2.8,5.3c-2.4-23.2-8.4-44.6-17.9-64.1c-8.5-17.4-18.2-30-27.6-42.2c-10.2-13.3-20.8-27-31.6-49.1
		c-11.7-24-19.8-49.9-24-77c-1.8-11.6-12.7-19.6-24.4-17.8c-11.8,2-19.8,12.9-17.9,24.6c2.6,16.4,6.4,32.3,11.3,47.8
		c-1.9,0.2-4,0.3-6.1,0.1c-8.4-0.7-14.4-4.6-17.2-6.9c-9.2-7.4-22.6-5.9-30,3.3s-5.9,22.6,3.3,30c11.5,9.2,25.8,14.9,40.4,16.1
		c2.1,0.2,4.2,0.3,6.2,0.3c7.3,0,13.8-1.1,19.5-2.6c0.2,0.4,0.3,0.7,0.5,1.1c12.7,26,25.2,42.2,36.2,56.4c5,6.5,9.7,12.6,14,19
		c-5.2-1.4-10.3-3-15.4-5c-13.6-5.4-26-13.1-37-22.7c-8.9-7.8-22.3-6.9-30.1,2s-6.9,22.3,2,30.1c14.6,12.8,31.2,23,49.3,30.2
		c16.3,6.5,33.4,10.4,50.9,11.7c5.6,24.9,5.6,53.3-0.4,84.8c-2.2,11.6,5.5,22.7,17,24.9c1.3,0.2,2.6,0.4,3.9,0.4
		c9.3,0,46.2-46.8,56.3-63.8c0.8-0.4,1.6-0.8,2.4-1.4c27.6-18.4,52.9-40,75.2-64.3c6.7,3.3,14.9,6.1,24.4,7.1
		c2.7,0.3,5.4,0.5,8.1,0.5c12,0,24.1-2.9,34.7-8.5C387.8-176.8,391.8-189.6,386.4-200.1z"/>
	
		<image style="overflow:visible;" width="547" height="443" xlink:href="../design/brain.png"  transform="matrix(0.6161 0 0 0.6161 386 -483.4269)">
	</image>
	
		<image style="overflow:visible;opacity:0.32;" width="547" height="443" id="Layer_3_xA0_Image" xlink:href="713B65973EC07031.png"  transform="matrix(0.4423 0 0 0.4423 -284.627 122.9005)">
	</image>
	
		<image style="overflow:visible;opacity:0.32;" width="882" height="882" id="Layer_2_xA0_Image" xlink:href="713B65973EC07036.png"  transform="matrix(0.407 0 0 0.407 -428.9346 156.1524)">
	</image>
	<path class="st1" d="M700.4-33.6l-0.6-32.5c-0.2-10.1,7.8-18.5,17.7-18.5h26.9c37.5,0,32.2-34.1,30.7-41.6
		c-0.2-1.1-0.4-2.2-0.4-3.3l-1.4-49.9c-0.3-10.4,8.1-18.9,18.3-18.6h0c12.1,0.4,21.1-11.5,17.5-23.4
		c-10.3-33.7-63.7-89.7-71.5-120.8c-1.3-5.1-4.4-9.4-8.9-11.9l-65.1-36.2c-2.8-1.5-5.9-2.3-9-2.2L537-388.8
		c-3.2,0.1-6.3,1.1-8.9,2.8L486-358.7c-3,2-5.4,4.8-6.8,8.2l-29.2,70.4c-1.2,2.9-1.7,6.1-1.3,9.3l4.2,35.6c0,0.4,0.1,0.8,0.2,1.2
		l5.7,30.7c0.7,3.7,2.5,7.1,5.2,9.7l14.5,14.1c1.3,1.2,2.7,2.3,4.3,3.1l23.7,12.1c2.4,1.2,4.5,3,6.2,5.2
		c27.1,35.9,21.6,114.5,21.6,114.5l-1,10"/>
	<path class="st2" d="M100.1,115.2c0-16.6,23.4-30.1,52.2-30.1"/>
	<g id="XMLID_1_">
		<g>
			<path class="st3" d="M273.7,139.7c1.4,11.4-5.2,23.4-15.7,28.2c-6.7,3.1-14.2,3.3-21.5,3.5l-24.4,0.7c-1.3,0-2.3,1.3-2,2.6
				c1.4,6.3,2.9,14.3,2.1,20.2c-0.9,6.7-4.8,13.5-11.3,15.7c-2,0.7-4.2,0.9-6.4,1.1c-6.2,0.5-12.4,0.9-18.6,1
				c-1.3,0-2.3,1.2-2.1,2.4c1.5,9.4,1.5,19.5-0.2,28.8c-0.2,1.1-1.2,1.8-2.3,1.7c-11.4-0.9-22.6,0.1-34.1,0.2
				c-1.2,0-2.1-0.9-2.1-2.1c0-9.1-0.3-18.2-0.4-27.2c0-0.6-0.3-1.2-0.7-1.6c-4.1-3.8-11-2.8-16.8-3.6c-6.4-0.9-12-5-15.7-10.3
				c-3.5-4.9-5.6-10.7-6.9-16.6c-0.2-0.7-0.7-1.3-1.4-1.6c-8-2.8-14.4-9.5-17.6-17.4c-2.7-6.5-2.7-13.8-0.3-20.4
				c0.6-1.8,1.5-3.4,2.7-4.8c1.4-1.7,3.3-2.9,5.1-4.1c5.7-3.8,11.8-7.8,18.5-8.9c1.1-0.2,1.8-1.1,1.8-2.2
				c-0.3-6.8,2.6-14.7,5.8-20.6c0.8-1.4,1.5-2.8,2.6-3.9c1.8-1.8,4.3-2.6,6.8-3.2c9.6-2.5,18.5-0.5,28.2,1.4
				c0.6,0.1,1.3-0.1,1.8-0.5c7.5-6.2,16.6-10.8,26.3-11.5c9.6-0.7,19.8,3,25.7,10.6c0.5,0.7,1.3,1,2.1,0.8c1.3-0.3,2.3-0.7,3.8-0.9
				c5.8-0.6,11.7-1.3,17.3,0.3c7.4,2.1,13.6,8.2,15.7,15.6c0.2,0.8,1,1.4,1.8,1.5c6.4,0.7,13.1,1.5,19,3.7c2.2,0.8,4.3,1.7,5.9,3.4
				c1.2,1.2,2.1,2.8,2.8,4.3C271.3,130.5,273.1,135,273.7,139.7z"/>
		</g>
		<g>
			<path class="st4" d="M146.9,98.9c0.6,0.1,1.3-0.1,1.8-0.5c7.5-6.2,16.6-10.8,26.3-11.5c9.6-0.7,19.8,3,25.7,10.6
				c0.5,0.7,1.3,1,2.1,0.8c1.3-0.3,2.3-0.7,3.8-0.9c5.8-0.6,11.7-1.3,17.3,0.3c7.4,2.1,13.6,8.2,15.7,15.6c0.2,0.8,1,1.4,1.8,1.5
				c6.4,0.7,13.1,1.5,19,3.7c2.2,0.8,4.3,1.7,5.9,3.4c1.2,1.2,2.1,2.8,2.8,4.3c2.1,4.3,3.9,8.8,4.5,13.5
				c1.4,11.4-5.2,23.4-15.7,28.2c-6.7,3.1-14.2,3.3-21.5,3.5l-24.4,0.7c-1.3,0-2.3,1.3-2,2.6c1.4,6.3,2.9,14.3,2.1,20.2
				c-0.9,6.7-4.8,13.5-11.3,15.7c-2,0.7-4.2,0.9-6.4,1.1c-6.2,0.5-12.4,0.9-18.6,1c-1.3,0-2.3,1.2-2.1,2.4
				c1.5,9.4,1.5,19.5-0.2,28.8c-0.2,1.1-1.2,1.8-2.3,1.7c-11.4-0.9-22.6,0.1-34.1,0.2c-1.2,0-2.1-0.9-2.1-2.1
				c0-9.1-0.3-18.2-0.4-27.2c0-0.6-0.3-1.2-0.7-1.6c-4.1-3.8-11-2.8-16.8-3.6c-6.4-0.9-12-5-15.7-10.3c-3.5-4.9-5.6-10.7-6.9-16.6
				c-0.2-0.7-0.7-1.3-1.4-1.6c-8-2.8-14.4-9.5-17.6-17.4c-2.7-6.5-2.7-13.8-0.3-20.4c0.6-1.8,1.5-3.4,2.7-4.8
				c1.4-1.7,3.3-2.9,5.1-4.1c5.7-3.8,11.8-7.8,18.5-8.9c1.1-0.2,1.8-1.1,1.8-2.2c-0.3-6.8,2.6-14.7,5.8-20.6
				c0.8-1.4,1.5-2.8,2.6-3.9c1.8-1.8,4.3-2.6,6.8-3.2C128.3,95.1,137.2,97,146.9,98.9z"/>
		</g>
	</g>
</g>
<g id="Layer_2">
	<g>
		<path class="st5" d="M249.5,397.5l1.9-54.4c0-1.4,1.4-2.4,2.7-1.9c19.9,6.1,51.6,3.8,66.5-12.8c5.5-6.2,8.3-14.5,9.2-22.8
			c2.2-20.4,0.7-42.9-0.2-63.5c-0.1-1.2,0.9-2.2,2.2-2.2c12.2,0.3,25.5-1.2,37.5-2.7c2.3-0.3,4.7-0.7,6.4-2.2
			c2.8-2.6,2.2-7.2,1.4-11c-10.4-44.3-32.4-83.5-53.4-123.4c-11.4-21.7-26.5-42.3-48-55c-25.4-15-57-16-85.7-17.6
			c-32.4-1.8-64.6-5.1-94.3,8.1c-41.1,18.2-65,63.3-70.3,107.9c-1.3,10.6-1.6,21.3,0.2,31.8c6.4,36.9,39,66,41.9,103.4
			c1,12.3-1.4,24.5-3.1,36.7c-3,21.7-3.7,43.7-2.3,65.6"/>
	</g>
</g>
</svg>
