<?xml version="1.0" encoding="utf-8"?>
<!-- Generator: Adobe Illustrator 21.1.0, SVG Export Plug-In . SVG Version: 6.00 Build 0)  -->
<svg version="1.1" id="Layer_1" xmlns="http://www.w3.org/2000/svg" xmlns:xlink="http://www.w3.org/1999/xlink" x="0px" y="0px"
	 viewBox="0 0 400 400" style="enable-background:new 0 0 400 400;" xml:space="preserve">
<style type="text/css">
	.st0{fill:#333333;}
</style>
<path class="st0" d="M386.4,219.9c-5.5-10.4-18.3-14.5-28.8-9c-3.2,1.7-9.9,4.4-18.3,3.4c-0.1,0-0.2,0-0.2,0
	c4.1-5.6,8-11.3,11.8-17.1c6.5-9.9,3.7-23.1-6.2-29.5c-9.9-6.4-23.1-3.7-29.5,6.2c-10.2,15.6-21.8,30.6-34.2,44.4
	c-4.8,5.4-9.8,10.6-15,15.6c4.2-16.6,6.6-32.2,8-46c0.5-2.1,0.7-4.3,0.6-6.4c1.1-14.6,1-27.1,0.5-36.6c-0.7-13.5-2.3-26.9-4.9-40.2
	c7.2-3.3,15.1-8.4,22.4-16.1c10.1-10.6,17-24.4,19.5-38.9c2-11.6-5.8-22.6-17.4-24.6s-22.6,5.8-24.6,17.4
	c-0.6,3.6-2.5,10.5-8.3,16.6c-1,1-2,2-3,2.8c-3.4-9.7-7.3-19.3-11.6-28.7c-5-10.7-17.7-15.3-28.3-10.3c-10.7,5-15.3,17.7-10.3,28.3
	c13.6,29.1,21.5,59.8,23.7,91.2c-0.9-0.8-1.9-1.6-2.8-2.5c-11.4-10.4-21.3-22.5-29.3-35.7c-6.1-10.1-19.2-13.3-29.3-7.1
	c-10.1,6.1-13.3,19.2-7.1,29.3c10.1,16.7,22.6,31.8,36.9,45c9.2,8.4,19.2,16,29.8,22.7c-3.3,24.4-10.8,53.8-26.3,84.3
	c-0.9,1.8-1.9,3.5-2.8,5.3c-2.4-23.2-8.4-44.6-17.9-64.1c-8.5-17.4-18.2-30-27.6-42.2c-10.2-13.3-20.8-27-31.6-49.1
	c-11.7-24-19.8-49.9-24-77c-1.8-11.6-12.7-19.6-24.4-17.8C64.1,35.5,56.1,46.4,58,58.1c2.6,16.4,6.4,32.3,11.3,47.8
	c-1.9,0.2-4,0.3-6.1,0.1c-8.4-0.7-14.4-4.6-17.2-6.9c-9.2-7.4-22.6-5.9-30,3.3s-5.9,22.6,3.3,30c11.5,9.2,25.8,14.9,40.4,16.1
	c2.1,0.2,4.2,0.3,6.2,0.3c7.3,0,13.8-1.1,19.5-2.6c0.2,0.4,0.3,0.7,0.5,1.1c12.7,26,25.2,42.2,36.2,56.4c5,6.5,9.7,12.6,14,19
	c-5.2-1.4-10.3-3-15.4-5c-13.6-5.4-26-13.1-37-22.7c-8.9-7.8-22.3-6.9-30.1,2c-7.8,8.9-6.9,22.3,2,30.1c14.6,12.8,31.2,23,49.3,30.2
	c16.3,6.5,33.4,10.4,50.9,11.7c5.6,24.9,5.6,53.3-0.4,84.8c-2.2,11.6,5.5,22.7,17,24.9c1.3,0.2,2.6,0.4,3.9,0.4
	c9.3,0,46.2-46.8,56.3-63.8c0.8-0.4,1.6-0.8,2.4-1.4c27.6-18.4,52.9-40,75.2-64.3c6.7,3.3,14.9,6.1,24.4,7.1
	c2.7,0.3,5.4,0.5,8.1,0.5c12,0,24.1-2.9,34.7-8.5C387.8,243.2,391.8,230.4,386.4,219.9z"/>
</svg>
