<svg id="Layer_1" data-name="Layer 1" xmlns="http://www.w3.org/2000/svg" width="620" height="620" viewBox="0 0 620 620"><path d="M469.4186,162.1282A71.4209,71.4209,0,0,0,402.838,65.0809a70.9723,70.9723,0,0,0-39.6066,12.038,118.9038,118.9038,0,0,0-221.96,59.2984c0,2.0064.0743,4.0127.1486,6.019a107.0329,107.0329,0,0,0,35.52,207.99H450.3956a95.11,95.11,0,0,0,19.023-188.2984Z" fill="#fff"/><path d="M400.4507,361.79H323.6074l28.3668-86.432a16.0439,16.0439,0,0,0-15.4486-20.11H240.638a16.0049,16.0049,0,0,0-15.8481,13.85L203.4815,428.911A16.01,16.01,0,0,0,219.33,447.0231H298.37L267.673,576.538a15.9647,15.9647,0,0,0,29.3656,11.653l117.196-202.43A15.9506,15.9506,0,0,0,400.4507,361.79Z" fill="#fff"/></svg>