<svg id="Layer_1" data-name="Layer 1" xmlns="http://www.w3.org/2000/svg" width="620" height="620" viewBox="0 0 620 620"><path d="M319.0269,431.997H260.8458l21.4776-65.441A12.1474,12.1474,0,0,0,270.6267,351.33h-72.6a12.1179,12.1179,0,0,0-11.9992,10.4867l-16.1334,121a12.1219,12.1219,0,0,0,11.9992,13.7134h59.8448l-23.2422,98.0607a12.0875,12.0875,0,0,0,22.2338,8.823l88.7337-153.2672A12.0768,12.0768,0,0,0,319.0269,431.997Z" fill="#333"/><path d="M450.6433,139.6071A65.1419,65.1419,0,0,0,389.9162,51.092a64.7328,64.7328,0,0,0-36.1244,10.98,108.45,108.45,0,0,0-202.4462,54.0851c0,1.83.0678,3.66.1356,5.49A97.6228,97.6228,0,0,0,183.878,311.3508H433.2927a86.7478,86.7478,0,0,0,17.3506-171.7437Z" fill="#333"/><path d="M444.12,347.3571h-58.181l21.4776-65.441A12.1474,12.1474,0,0,0,395.72,266.69h-72.6A12.118,12.118,0,0,0,311.12,277.1769l-16.1333,121a12.1218,12.1218,0,0,0,11.9992,13.7134h59.8447l-23.2421,98.0607a12.0875,12.0875,0,0,0,22.2338,8.823l88.7336-153.2672A12.0768,12.0768,0,0,0,444.12,347.3571Z" fill="#333"/></svg>