<svg id="Layer_1" data-name="Layer 1" xmlns="http://www.w3.org/2000/svg" width="620" height="620" viewBox="0 0 620 620"><path d="M316.1578,434.1846H258.694L279.9068,369.55a11.9977,11.9977,0,0,0-11.5525-15.0382H196.649A11.9686,11.9686,0,0,0,184.7977,364.87L168.8632,484.3784a11.9724,11.9724,0,0,0,11.8513,13.5443h59.1071l-22.9557,96.8519a11.9385,11.9385,0,0,0,21.96,8.7142l87.64-151.3778A11.9279,11.9279,0,0,0,316.1578,434.1846Z" fill="#fff"/><path d="M446.1518,145.3989a64.3387,64.3387,0,0,0-59.9784-87.424,63.9341,63.9341,0,0,0-35.6792,10.8444,107.1132,107.1132,0,0,0-199.9506,53.4183c0,1.8074.0669,3.6148.1339,5.4222a96.4194,96.4194,0,0,0,31.9974,187.3658h246.34a85.6785,85.6785,0,0,0,17.1367-169.6267Z" fill="#fff"/><path d="M439.7086,350.5881H382.2448l21.2128-64.6344a11.9977,11.9977,0,0,0-11.5525-15.0382H320.2a11.9685,11.9685,0,0,0-11.8513,10.3575L292.414,400.7818a11.9724,11.9724,0,0,0,11.8513,13.5443h59.1071l-22.9557,96.852a11.9385,11.9385,0,0,0,21.96,8.7142l87.64-151.3779A11.9279,11.9279,0,0,0,439.7086,350.5881Z" fill="#fff"/></svg>