<?xml version="1.0" encoding="utf-8"?>
<!-- Generator: Adobe Illustrator 24.3.0, SVG Export Plug-In . SVG Version: 6.00 Build 0)  -->
<svg version="1.1" id="Layer_1" xmlns="http://www.w3.org/2000/svg" xmlns:xlink="http://www.w3.org/1999/xlink" x="0px" y="0px"
	 viewBox="0 0 400 400" style="enable-background:new 0 0 400 400;" xml:space="preserve">
<style type="text/css">
	.st0{fill:none;}
	.st1{fill:#FFFFFF;}
	.st2{fill:none;stroke:#FFFFFF;stroke-width:24;stroke-miterlimit:10;}
	.st3{fill:none;stroke:#FFFFFF;stroke-width:36;stroke-miterlimit:10;}
</style>
<g id="Layer_1_1_">
	<path class="st0" d="M99.6,109.4c0-15.4,21.6-27.8,48.3-27.8"/>
	<path class="st1" d="M275.8,130.4c1.3,12.2-5.2,23.9-16.2,29.2c-6.9,3.2-14.7,3.5-22.3,3.7l-25.3,0.8c-1.2,0-2.2,1-2.1,2.2
		c0,0.1,0,0.3,0.1,0.4c1.5,6.6,3,14.8,2.2,21c-0.9,7-5,14-11.7,16.3c-2.1,0.7-4.4,1.1-6.6,1.2c-6.4,0.6-12.9,0.9-19.3,1
		c-1.2,0-2.2,1-2.2,2.2c0,0.1,0,0.2,0,0.3c1.6,9.9,1.5,20-0.2,29.9c-0.2,1.1-1.2,1.8-2.3,1.7c-11.8-0.9-23.5,0.1-35.3,0.2
		c-1.2,0-2.2-1-2.2-2.2c0,0,0,0,0,0c0-9.4-0.4-18.8-0.4-28.3c0-0.6-0.3-1.2-0.7-1.6c-4.3-4-11.4-2.9-17.4-3.8
		c-6.6-0.9-12.4-5.2-16.3-10.6c-3.7-5.1-5.8-11.1-7.2-17.2c-0.2-0.8-0.7-1.4-1.5-1.6c-8.3-2.9-14.9-9.9-18.3-18
		c-2.7-6.8-2.9-14.3-0.3-21.1c0.6-1.8,1.6-3.5,2.8-5c1.6-1.7,3.3-3.1,5.3-4.3c5.9-4,12.2-8,19.2-9.2c1.1-0.2,1.9-1.2,1.8-2.3
		c-0.3-7.1,2.7-15.3,6-21.3c0.7-1.5,1.6-2.8,2.7-4.1c1.9-1.8,4.5-2.7,7-3.3c10-2.6,19.2-0.5,29.3,1.4c0.6,0.1,1.3-0.1,1.8-0.5
		c7.8-6.5,17.2-11.3,27.3-12c10-0.7,20.5,3.1,26.7,11c0.5,0.7,1.4,1,2.2,0.8c1.3-0.4,2.6-0.7,3.9-0.9c6-0.7,12.2-1.3,18,0.3
		c7.8,2.3,14,8.4,16.3,16.2c0.2,0.9,1,1.5,1.9,1.6c6.6,0.7,13.6,1.6,19.7,3.9c2.3,0.7,4.4,1.9,6.2,3.5c1.2,1.3,2.2,2.9,2.9,4.5
		C273.5,120.7,275.1,125.5,275.8,130.4z"/>
	<path class="st2" d="M144.2,88c0.6,0.1,1.3-0.1,1.8-0.5c7.8-6.5,17.2-11.3,27.3-12c10-0.7,20.5,3.1,26.7,11c0.5,0.7,1.4,1,2.2,0.8
		c1.3-0.4,2.6-0.7,3.9-0.9c6-0.7,12.2-1.3,18,0.3c7.8,2.3,14,8.4,16.3,16.2c0.2,0.9,1,1.5,1.9,1.6c6.6,0.7,13.6,1.6,19.7,3.9
		c2.3,0.7,4.4,1.9,6.2,3.5c1.2,1.3,2.2,2.9,2.9,4.5c2.3,4.4,3.9,9.1,4.7,14c1.3,12.2-5.2,23.9-16.2,29.2c-6.9,3.2-14.7,3.5-22.3,3.7
		l-25.3,0.8c-1.2,0-2.2,1-2.1,2.2c0,0.1,0,0.3,0.1,0.4c1.5,6.6,3,14.8,2.2,21c-0.9,7-5,14-11.7,16.3c-2.1,0.7-4.4,1.1-6.6,1.2
		c-6.4,0.6-12.9,0.9-19.3,1c-1.2,0-2.2,1-2.2,2.2c0,0.1,0,0.2,0,0.3c1.6,9.9,1.5,20-0.2,29.9c-0.2,1.1-1.2,1.8-2.3,1.7
		c-11.8-0.9-23.5,0.1-35.3,0.2c-1.2,0-2.2-1-2.2-2.2c0,0,0,0,0,0c0-9.4-0.4-18.8-0.4-28.3c0-0.6-0.3-1.2-0.7-1.6
		c-4.3-4-11.4-2.9-17.4-3.8c-6.6-0.9-12.4-5.2-16.3-10.6c-3.7-5.1-5.8-11.1-7.2-17.2c-0.2-0.8-0.7-1.4-1.5-1.6
		c-8.3-2.9-14.9-9.9-18.3-18c-2.7-6.8-2.9-14.3-0.3-21.1c0.6-1.8,1.6-3.5,2.8-5c1.6-1.7,3.3-3.1,5.3-4.3c5.9-4,12.2-8,19.2-9.2
		c1.1-0.2,1.9-1.2,1.8-2.3c-0.3-7.1,2.7-15.3,6-21.3c0.7-1.5,1.6-2.8,2.7-4.1c1.9-1.8,4.5-2.7,7-3.3C124.9,84,134.2,86.1,144.2,88z"
		/>
</g>
<g id="Layer_2_1_">
	<path class="st3" d="M250,391l1.9-54.4c0-1.2,1-2.1,2.2-2c0.2,0,0.4,0,0.5,0.1c19.9,6.1,51.6,3.8,66.5-12.8
		c5.5-6.2,8.3-14.5,9.2-22.8c2.2-20.4,0.7-42.9-0.2-63.5c-0.1-1.2,0.9-2.1,2-2.2c0.1,0,0.1,0,0.2,0c12.2,0.3,25.5-1.2,37.5-2.7
		c2.3-0.3,4.7-0.7,6.4-2.2c2.8-2.6,2.2-7.2,1.4-11c-10.4-44.3-32.4-83.5-53.4-123.4c-11.4-21.7-26.5-42.3-48-55
		c-25.4-15-57-16-85.7-17.6c-32.4-1.8-64.6-5.1-94.3,8.1c-41.1,18.2-65,63.3-70.3,107.9c-1.3,10.6-1.6,21.3,0.2,31.8
		c6.4,36.9,39,66,41.9,103.4c1,12.3-1.4,24.5-3.1,36.7c-3,21.7-3.7,43.7-2.3,65.6"/>
</g>
</svg>
