<svg xmlns="http://www.w3.org/2000/svg" width="400" height="400" viewBox="0 0 400 400"><g id="Layer_1" data-name="Layer 1"><path d="M100.1327,115.177c0-16.631,23.3529-30.0885,52.2124-30.0885" fill="none"/><path d="M146.7166,80.5909a2.42,2.42,0,0,0,1.9737-.5177c8.3909-7,18.6153-12.1658,29.5084-12.9207,10.796-.7334,22.2068,3.3973,28.829,11.8853a2.3141,2.3141,0,0,0,2.3727.8628,32.3529,32.3529,0,0,1,4.2386-.9814c6.4712-.7226,13.1365-1.4344,19.4135.3128a26.0825,26.0825,0,0,1,17.6231,17.5152,2.3454,2.3454,0,0,0,2.0276,1.6825c7.14.7334,14.6787,1.7041,21.344,4.1739a17.8877,17.8877,0,0,1,6.6653,3.764,18.1028,18.1028,0,0,1,3.1709,4.8642,47.85,47.85,0,0,1,5.0906,15.1425,31.4889,31.4889,0,0,1-17.5584,31.6008c-7.4634,3.4405-15.93,3.7425-24.1374,3.98l-27.3514.82a2.3627,2.3627,0,0,0-2.2433,2.88c1.6178,7.0967,3.2032,16.0376,2.33,22.6813-.9922,7.55-5.425,15.1533-12.6187,17.6555a29.5977,29.5977,0,0,1-7.1506,1.2619c-6.9457.6147-13.9238.9706-20.8911,1.0785a2.3654,2.3654,0,0,0-2.308,2.7287,94.9183,94.9183,0,0,1-.27,32.291,2.3633,2.3633,0,0,1-2.5346,1.8874c-12.7589-1.0246-25.3777.14-38.2013.2481a2.3636,2.3636,0,0,1-2.3728-2.362c-.0539-10.17-.3883-20.3625-.41-30.533a2.4176,2.4176,0,0,0-.7766-1.758c-4.6053-4.2818-12.36-3.16-18.7987-4.0876-7.14-1.0246-13.4384-5.6515-17.6554-11.5079-3.9474-5.5005-6.2554-12.004-7.7654-18.6153a2.4223,2.4223,0,0,0-1.5854-1.7472c-8.9949-3.117-16.1455-10.6774-19.7694-19.4782a31.4749,31.4749,0,0,1-.3235-22.8539,17.5267,17.5267,0,0,1,3.0522-5.4358,27.0552,27.0552,0,0,1,5.6946-4.6053c6.428-4.2818,13.18-8.6929,20.7293-9.9656a2.3675,2.3675,0,0,0,1.9737-2.4482c-.302-7.636,2.9659-16.523,6.5035-23.0589a18.1676,18.1676,0,0,1,2.9551-4.3788c2.0169-1.9845,4.8426-2.912,7.582-3.6131C125.8579,76.266,135.845,78.4986,146.7166,80.5909Z" fill="none" stroke="#fff" stroke-miterlimit="10" stroke-width="13"/></g><g id="Layer_2" data-name="Layer 2"><path d="M248.9615,393.9733l1.902-54.3575a2.1067,2.1067,0,0,1,2.7207-1.9454c19.9237,6.12,51.6233,3.7889,66.4564-12.8121,5.5477-6.2089,8.3044-14.5113,9.1981-22.79,2.2067-20.4417.7162-42.9462-.1828-63.5344a2.1076,2.1076,0,0,1,2.1772-2.1989c12.2079.33,25.5432-1.2017,37.5251-2.66,2.2834-.2779,4.72-.6619,6.4042-2.2287,2.8309-2.634,2.2489-7.1935,1.3623-10.9572-10.4414-44.3234-32.4316-83.5118-53.4342-123.4287-11.4072-21.68-26.5073-42.3451-47.9617-54.9671-25.44-14.9664-57.0185-15.9951-85.7016-17.57-32.4219-1.78-64.6009-5.0577-94.2873,8.0977C54.0713,50.82,30.1091,95.8978,24.8242,140.5063c-1.2508,10.5574-1.6281,21.3059.1924,31.78C31.43,209.1855,64.0142,238.324,66.9632,275.66c.9689,12.2673-1.3964,24.515-3.0636,36.7071a325.8163,325.8163,0,0,0-2.2911,65.5966" fill="none" stroke="#fff" stroke-miterlimit="10" stroke-width="36"/></g></svg>