<svg xmlns="http://www.w3.org/2000/svg" width="400" height="400" viewBox="0 0 400 400"><g id="Layer_1" data-name="Layer 1"><path d="M100.1327,115.177c0-16.631,23.3529-30.0885,52.2124-30.0885" fill="none"/><path d="M152.7435,100.9462a2.3075,2.3075,0,0,0,1.8821-.4937c8.0013-6.6746,17.7511-11.6009,28.1384-12.3208,10.2948-.6994,21.1758,3.24,27.49,11.3335a2.207,2.207,0,0,0,2.2626.8227,30.8449,30.8449,0,0,1,4.0418-.9358c6.1707-.6891,12.5265-1.3679,18.5121.2982a24.8719,24.8719,0,0,1,16.8049,16.702,2.2362,2.2362,0,0,0,1.9334,1.6044c6.8084.6994,13.9973,1.625,20.3531,3.98a17.0568,17.0568,0,0,1,6.3558,3.5893,17.259,17.259,0,0,1,3.0236,4.6383,45.626,45.626,0,0,1,4.8543,14.44,30.027,30.027,0,0,1-16.7431,30.1336c-7.1169,3.2807-15.19,3.5687-23.0168,3.7949l-26.0815.7817a2.2529,2.2529,0,0,0-2.1391,2.7459c1.5426,6.7672,3.0545,15.2931,2.2214,21.6283-.9462,7.1992-5.1731,14.45-12.0328,16.8358a28.2221,28.2221,0,0,1-6.8187,1.2032c-6.6232.5863-13.2773.9257-19.9211,1.0285a2.2555,2.2555,0,0,0-2.2008,2.602,90.5127,90.5127,0,0,1-.2571,30.7918,2.2537,2.2537,0,0,1-2.4169,1.8c-12.1666-.9771-24.1994.1337-36.4277.2365a2.2538,2.2538,0,0,1-2.2626-2.2523c-.0514-9.6983-.37-19.4171-.3908-29.1154a2.3055,2.3055,0,0,0-.74-1.6764c-4.3915-4.0829-11.786-3.0134-17.9259-3.8978-6.8083-.9771-12.8145-5.3891-16.8357-10.9736-3.7641-5.2451-5.965-11.4466-7.4049-17.751a2.31,2.31,0,0,0-1.5118-1.6661c-8.5773-2.9723-15.3959-10.1817-18.8515-18.5738a30.0138,30.0138,0,0,1-.3085-21.7929,16.7167,16.7167,0,0,1,2.91-5.1834,25.8059,25.8059,0,0,1,5.43-4.3915c6.13-4.0829,12.5677-8.2893,19.7668-9.5029a2.2575,2.2575,0,0,0,1.8821-2.3345c-.288-7.2815,2.8282-15.7559,6.2016-21.9883a17.3228,17.3228,0,0,1,2.8179-4.1755c1.9232-1.8924,4.6177-2.7768,7.23-3.4453C132.8533,96.8221,142.3768,98.951,152.7435,100.9462Z" fill="none" stroke="#fff" stroke-miterlimit="10" stroke-width="30"/></g><g id="Layer_2" data-name="Layer 2"><path d="M248.3738,393.706l1.902-54.3575a2.1067,2.1067,0,0,1,2.7206-1.9455c19.9238,6.12,51.6233,3.789,66.4564-12.812,5.5478-6.2089,8.3045-14.5113,9.1982-22.79,2.2067-20.4417.7162-42.9462-.1828-63.5344a2.1075,2.1075,0,0,1,2.1771-2.1989c12.208.33,25.5432-1.2017,37.5252-2.66,2.2833-.2779,4.72-.6619,6.4041-2.2288,2.831-2.6339,2.249-7.1934,1.3623-10.9571C365.4956,175.8983,343.5054,136.71,322.5027,96.793c-11.4072-21.68-26.5073-42.3452-47.9617-54.9671-25.44-14.9664-57.0184-15.9951-85.7016-17.57-32.4218-1.78-64.6009-5.0577-94.2873,8.0976C53.4835,50.5529,29.5213,95.6305,24.2365,140.239c-1.2508,10.5574-1.6282,21.3059.1924,31.78,6.4135,36.899,38.9975,66.0376,41.9466,103.3736.9689,12.2673-1.3965,24.515-3.0636,36.7071a325.8163,325.8163,0,0,0-2.2912,65.5966" fill="none" stroke="#fff" stroke-miterlimit="10" stroke-width="40"/></g></svg>