<svg xmlns="http://www.w3.org/2000/svg" width="400" height="400" viewBox="0 0 400 400"><g id="Layer_1" data-name="Layer 1"><path d="M100.1327,115.177c0-16.631,23.3529-30.0885,52.2124-30.0885" fill="none"/><path d="M148.3512,95.3026a2.42,2.42,0,0,0,1.9737-.5177c8.3909-7,18.6153-12.1658,29.5084-12.9208,10.7961-.7334,22.2069,3.3974,28.829,11.8854a2.3144,2.3144,0,0,0,2.3728.8628,32.3486,32.3486,0,0,1,4.2386-.9815c6.4711-.7226,13.1364-1.4344,19.4134.3128A26.0824,26.0824,0,0,1,252.31,111.4589a2.3455,2.3455,0,0,0,2.0276,1.6825c7.14.7334,14.6788,1.704,21.3441,4.1739a17.8867,17.8867,0,0,1,6.6652,3.764,18.0973,18.0973,0,0,1,3.1709,4.8642,47.8474,47.8474,0,0,1,5.0906,15.1424A31.4888,31.4888,0,0,1,273.05,172.6867c-7.4634,3.44-15.93,3.7425-24.1374,3.98l-27.3514.82a2.3627,2.3627,0,0,0-2.2434,2.88c1.6178,7.0967,3.2033,16.0377,2.33,22.6814-.9923,7.55-5.425,15.1533-12.6188,17.6555a29.5975,29.5975,0,0,1-7.1506,1.2618c-6.9457.6148-13.9238.9707-20.891,1.0786a2.3653,2.3653,0,0,0-2.3081,2.7286,94.9163,94.9163,0,0,1-.27,32.2911,2.3634,2.3634,0,0,1-2.5345,1.8874c-12.759-1.0246-25.3777.14-38.2014.248a2.3635,2.3635,0,0,1-2.3728-2.3619c-.0539-10.1705-.3882-20.3626-.41-30.5331a2.4178,2.4178,0,0,0-.7765-1.758c-4.6053-4.2817-12.36-3.16-18.7987-4.0876-7.14-1.0246-13.4384-5.6514-17.6555-11.5078-3.9474-5.5005-6.2554-12.004-7.7654-18.6154a2.4223,2.4223,0,0,0-1.5854-1.7472C79.3148,186.47,72.1642,178.91,68.54,170.109a31.4749,31.4749,0,0,1-.3235-22.8539,17.531,17.531,0,0,1,3.0522-5.4358,27.0615,27.0615,0,0,1,5.6946-4.6053c6.428-4.2817,13.18-8.6929,20.7293-9.9655A2.3675,2.3675,0,0,0,99.6666,124.8c-.302-7.6359,2.9659-16.523,6.5035-23.0588a18.1711,18.1711,0,0,1,2.9551-4.3789c2.0169-1.9844,4.8426-2.912,7.5821-3.613C127.4925,90.9777,137.48,93.21,148.3512,95.3026Z" fill="none" stroke="#fff" stroke-miterlimit="10" stroke-width="24"/></g><g id="Layer_2" data-name="Layer 2"><path d="M248.9615,393.9733l1.902-54.3575a2.1067,2.1067,0,0,1,2.7207-1.9454c19.9237,6.12,51.6233,3.7889,66.4564-12.8121,5.5477-6.2089,8.3044-14.5113,9.1981-22.79,2.2067-20.4417.7162-42.9462-.1828-63.5344a2.1076,2.1076,0,0,1,2.1772-2.1989c12.2079.33,25.5432-1.2017,37.5251-2.66,2.2834-.2779,4.72-.6619,6.4042-2.2287,2.8309-2.634,2.2489-7.1935,1.3623-10.9572-10.4414-44.3234-32.4316-83.5118-53.4342-123.4287-11.4072-21.68-26.5073-42.3451-47.9617-54.9671-25.44-14.9664-57.0185-15.9951-85.7016-17.57-32.4219-1.78-64.6009-5.0577-94.2873,8.0977C54.0713,50.82,30.1091,95.8978,24.8242,140.5063c-1.2508,10.5574-1.6281,21.3059.1924,31.78C31.43,209.1855,64.0142,238.324,66.9632,275.66c.9689,12.2673-1.3964,24.515-3.0636,36.7071a325.8163,325.8163,0,0,0-2.2911,65.5966" fill="none" stroke="#fff" stroke-miterlimit="10" stroke-width="36"/></g></svg>