<svg xmlns="http://www.w3.org/2000/svg" width="1.8919cm" height="3.7223cm" viewBox="0 0 53.6293 105.5128"><g id="Layer_1" data-name="Layer 1"><path d="M79.83,27.3365A11.3784,11.3784,0,1,1,68.4577,38.709,11.3733,11.3733,0,0,1,79.83,27.3365Z" transform="translate(-59.3135 -27.3365)" fill="#333"/></g><g id="Layer_2" data-name="Layer 2"><path d="M110.3459,80.5332a15.3625,15.3625,0,0,0-9.1636-5.3806,14.8151,14.8151,0,0,1-4.93-1.3349,13.4983,13.4983,0,0,1-3.93-3.5C88.42,65.449,90.5951,56.9908,83.5512,53.94a9.5646,9.5646,0,0,0-4.1625-.6894c-10.9023.36-11.3215,11.4784-12.85,18.9452C63.89,85.1287,60.86,98.0189,59.3234,111.0778a1.5914,1.5914,0,0,0,1.7056,1.6968c2.3809-.064,4.7646-.0817,7.1456-.0308,3.2878.07,5.2189.6788,5.7316,3.3884q.8828,4.6655,1.7509,9.3329a13.1318,13.1318,0,0,0,1.6383,4.8333,5.6115,5.6115,0,0,0,2.5843,2.2071,4.5929,4.5929,0,0,0,6.0632-2.5076,15.761,15.761,0,0,0,.3658-4.6857c.0071-1.6806-.1055-3.36-.0944-5.0405.0157-2.3634-1.191-7.3121,2.9036-7.3777,4.0462-.0648,8.0553.0525,12.1.0943.9817.01,2.5578-.217,2.81-1.1713a2.496,2.496,0,0,0-.1511-1.3488q-.9359-3.0837-1.8716-6.1673A5.6272,5.6272,0,0,1,101.6979,102a4.9509,4.9509,0,0,1,.1767-1.35c.09-.2439.6362-.7982.6362-.9853a10.3908,10.3908,0,0,1,3.23-1.7442C113.469,94.9281,114.9341,86.4054,110.3459,80.5332Zm-9.901,8.3533c-4.5661,2.8422-13.2169-1.5694-17.1277-4.4756a28.1771,28.1771,0,0,1-6.3539-7.1146c-2.4085-3.8207-3.7575-8.1157-1.5459-10.9062,2.311-2.9158,6.9231.5982,7.6276,2.2809,1.827,4.3645,2.1887,7.4323,6.9838,10.3455,1.4848.9021,7.6073,1.9927,10.2584,4.7519C101.8724,85.4182,103.2422,87.1454,100.4449,88.8865Z" transform="translate(-59.3135 -27.3365)" fill="#333"/></g></svg>